<svg width="4125" height="674" xmlns="http://www.w3.org/2000/svg" xmlns:xlink="http://www.w3.org/1999/xlink" xml:space="preserve" overflow="hidden"><g transform="translate(-128 898)"><g><path d="M992-732 1147.39-732C1220.04-732 1272-688.24 1272-613.295 1272-537.848 1220.04-495.094 1147.39-495.094L1067.68-495.094 1067.68-395 992-395 992-732ZM1067.68-664.097 1067.68-562.494 1150.41-562.494C1185.23-562.494 1196.83-573.057 1196.83-613.295 1196.83-654.037 1185.23-664.097 1150.41-664.097L1067.68-664.097Z" fill="#FFFFFF" fill-rule="evenodd" fill-opacity="1"/><path d="M1549-732 1624-732 1624-677 1550.01-677 1549-732Z" fill="#FFFFFF" fill-rule="evenodd" fill-opacity="1"/><path d="M2505-732 2659.79-732C2740.2-732 2784.93-694.779 2784.93-629.391 2784.93-574.566 2757.79-541.872 2700-536.842L2700-531.812C2729.14-522.758 2743.22-505.154 2756.28-479.502L2799-395 2711.05-395 2671.35-472.963C2656.27-502.136 2646.22-514.711 2610.54-514.711L2580.38-514.711 2580.38-395 2505-395 2505-732ZM2580.38-664.097 2580.38-577.081 2663.31-577.081C2698.49-577.081 2710.05-587.643 2710.05-620.84 2710.05-653.031 2698.49-664.097 2663.31-664.097L2580.38-664.097Z" fill="#FFFFFF" fill-rule="evenodd" fill-opacity="1"/><path d="M3276.78-732 3352-732 3352-395.03 3281.83-395.03 3281.83-432.247 3279.31-432.247C3266.18-405.088 3237.41-390 3200.05-390 3128.37-390 3090-441.803 3090-521.268 3090-601.235 3130.89-653.038 3200.05-653.038 3238.92-653.038 3262.14-635.938 3273.75-614.815L3276.78-614.815 3276.78-732ZM3221.25-588.662C3177.33-588.662 3165.22-567.538 3165.22-521.268 3165.22-475.5 3177.33-454.377 3221.25-454.377 3257.09-454.377 3276.78-466.95 3276.78-501.15L3276.78-541.888C3276.78-576.088 3257.09-588.662 3221.25-588.662Z" fill="#FFFFFF" fill-rule="evenodd" fill-opacity="1"/><path d="M3394-732 3469-732 3469-677 3395.01-677 3394-732Z" fill="#FFFFFF" fill-rule="evenodd" fill-opacity="1"/><path d="M4117.6-707 4177.24-707 4177.24-648.124 4249-648.124 4249-585.725 4177.24-585.725 4177.24-486.592C4177.24-464.45 4184.82-461.934 4217.67-461.934L4249-461.934 4249-399.032C4236.87-396.516 4217.16-394 4199.47-394 4133.27-394 4101.43-418.154 4101.43-478.037L4101.43-585.725 4061-585.725 4061-648.124 4103.45-648.124 4117.6-707Z" fill="#FFFFFF" fill-rule="evenodd" fill-opacity="1"/><path d="M1447.67-653C1500.41-653 1520-613.772 1520-562.977L1520-539.842 1445.15-539.842 1445.15-553.421C1445.15-580.579 1436.61-589.129 1413-589.129 1389.9-589.129 1378.85-581.082 1378.85-553.421L1378.85-395 1304-395 1304-647.971 1373.82-647.971 1373.82-607.234 1376.84-607.234C1389.4-632.883 1412-653 1447.67-653Z" fill="#FFFFFF" fill-rule="evenodd" fill-opacity="1"/><path d="M1824.12-653C1867.43-653 1893.62-633.386 1906.21-603.714L1908.72-603.714C1922.82-631.374 1948.01-653 1994.84-653 2060.31-653 2087-609.246 2087-555.433L2087-395 2011.46-395 2011.46-540.345C2011.46-575.55 2000.88-588.123 1964.12-588.123 1929.88-588.123 1915.27-577.059 1915.27-540.345L1915.27-395 1839.73-395 1839.73-540.345C1839.73-575.55 1828.65-588.123 1792.39-588.123 1758.15-588.123 1743.04-577.059 1743.04-541.351L1743.04-395 1668-395 1668-647.971 1738-647.971 1738-603.714 1741.02-603.714C1754.62-632.38 1780.81-653 1824.12-653Z" fill="#FFFFFF" fill-rule="evenodd" fill-opacity="1"/><path d="M2250.27-653C2326.23-653 2371-607.742 2371-541.866 2371-527.786 2368.99-513.203 2367.48-504.654L2193.93-504.654C2195.44-469.453 2209.52-455.373 2250.77-455.373 2280.96-455.373 2294.03-461.91 2294.03-477.499L2294.03-480.516 2368.48-480.516 2368.48-475.488C2368.48-421.681 2322.2-390 2249.77-390 2162.74-390 2123-440.79 2123-520.746 2123-601.708 2171.29-653 2250.27-653ZM2247.75-591.147C2211.54-591.147 2197.45-577.067 2194.43-550.415L2298.56-550.415C2300.07-576.564 2282.97-591.147 2247.75-591.147Z" fill="#FFFFFF" fill-rule="evenodd" fill-opacity="1"/><path d="M2942.05-653C3016.67-653 3056-612.268 3056-544.884L3056-395.029 2985.91-395.029 2985.91-429.224 2982.89-429.224C2969.27-410.618 2943.56-390 2896.67-390 2851.79-390 2817-413.635 2817-459.396 2817-498.62 2845.24-522.757 2897.68-530.803L2984.4-543.878 2984.4-551.924C2984.4-581.593 2968.27-587.125 2938.52-587.125 2907.76-587.125 2895.66-578.576 2895.66-552.929L2895.66-547.398 2823.55-547.398 2823.55-552.929C2823.55-613.274 2870.45-653 2942.05-653ZM2984.4-494.597 2911.79-483.534C2896.16-481.019 2889.1-475.991 2889.1-465.43 2889.1-451.853 2899.69-447.327 2921.88-447.327 2952.64-447.327 2984.4-455.373 2984.4-494.597Z" fill="#FFFFFF" fill-rule="evenodd" fill-opacity="1"/><path d="M3629.05-653C3703.67-653 3743-612.268 3743-544.884L3743-395.029 3672.91-395.029 3672.91-429.224 3669.89-429.224C3656.27-410.618 3630.56-390 3583.67-390 3538.79-390 3504-413.635 3504-459.396 3504-498.62 3532.24-522.757 3584.67-530.803L3671.4-543.878 3671.4-551.924C3671.4-581.593 3655.27-587.125 3625.52-587.125 3594.76-587.125 3582.66-578.576 3582.66-552.929L3582.66-547.398 3510.55-547.398 3510.55-552.929C3510.55-613.274 3557.45-653 3629.05-653ZM3671.4-494.597 3598.79-483.534C3583.16-481.019 3576.1-475.991 3576.1-465.43 3576.1-451.853 3586.69-447.327 3608.88-447.327 3639.64-447.327 3671.4-455.373 3671.4-494.597Z" fill="#FFFFFF" fill-rule="evenodd" fill-opacity="1"/><path d="M3944.57-653C4010.72-653 4039-609.246 4039-555.433L4039-395 3963.25-395 3963.25-540.345C3963.25-575.55 3951.64-588.123 3913.26-588.123 3876.9-588.123 3861.24-576.556 3861.24-538.333L3861.24-395 3786-395 3786-647.971 3856.19-647.971 3856.19-603.714 3859.22-603.714C3872.86-632.38 3900.13-653 3944.57-653Z" fill="#FFFFFF" fill-rule="evenodd" fill-opacity="1"/><path d="M1550-648 1625-648 1625-395 1550-395 1550-648Z" fill="#FFFFFF" fill-rule="evenodd" fill-opacity="1"/><path d="M3395-648 3471-648 3471-395 3395-395 3395-648Z" fill="#FFFFFF" fill-rule="evenodd" fill-opacity="1"/><path d="M422.498-896.3 712.275-728.998 712.275-728.986 713.517-393.694 586.681-466.923 585.98-656.07 585.979-656.126 422.498-750.512ZM422.203-896.47 422.498-896.3 422.498-750.511 422.242-750.659 258.037-656.665 258.037-656.665 257.902-656.588 258.603-467.23 258.751-467.145 132.494-394.25 132.308-394.357 131.065-729.817 131.201-729.895 131.201-729.894Z" fill="#D1A419" fill-rule="evenodd" fill-opacity="1"/><path d="M422.242-750.659 422.498-750.511 422.498-750.511 585.979-656.125 585.98-656.07 422.524-561.699 422.498-561.714 422.498-561.714 258.037-656.665Z" fill="#DDC2FF" fill-rule="evenodd" fill-opacity="1"/><path d="M585.98-656.07 586.68-466.923 586.68-466.923 586.681-466.767 422.498-372.786 422.498-561.684 422.524-561.699 422.524-561.699ZM258.037-656.665 422.498-561.714 422.498-561.684 422.498-561.684 422.498-372.785 422.341-372.696 258.751-467.145 258.751-467.145 258.603-467.23 257.902-656.588Z" fill="#8F6CC2" fill-rule="evenodd" fill-opacity="1"/><path d="M586.68-466.923 713.517-393.694 713.518-393.538 422.498-226.952 422.498-372.785 586.681-466.767ZM258.751-467.144 422.341-372.696 422.498-372.785 422.498-226.952 422.38-226.885 132.494-394.25Z" fill="#F3DB67" fill-rule="evenodd" fill-opacity="1"/></g></g></svg>